<mxfile host="65bd71144e">
    <diagram id="3tqFyZtMpeWiBlMFjqQZ" name="Page-1">
        <mxGraphModel dx="1749" dy="953" grid="1" gridSize="10" guides="1" tooltips="1" connect="1" arrows="1" fold="1" page="1" pageScale="1" pageWidth="827" pageHeight="1169" math="0" shadow="0">
            <root>
                <mxCell id="0"/>
                <mxCell id="1" parent="0"/>
                <mxCell id="2" value="S" style="strokeWidth=1;shadow=0;dashed=0;align=center;html=1;shape=mxgraph.mockup.containers.browserWindow;rSize=0;strokeColor=#666666;mainText=,;recursiveResize=0;rounded=0;labelBackgroundColor=none;fontFamily=Verdana;fontSize=12" vertex="1" parent="1">
                    <mxGeometry x="150" y="60" width="1050" height="820" as="geometry"/>
                </mxCell>
                <mxCell id="4" value="Page 1" style="strokeWidth=1;shadow=0;dashed=0;align=center;html=1;shape=mxgraph.mockup.containers.anchor;fontSize=17;fontColor=#666666;align=left;" vertex="1" parent="2">
                    <mxGeometry x="60" y="12" width="110" height="26" as="geometry"/>
                </mxCell>
                <mxCell id="5" value="https://www.lestigresses.com" style="strokeWidth=1;shadow=0;dashed=0;align=center;html=1;shape=mxgraph.mockup.containers.anchor;rSize=0;fontSize=17;fontColor=#666666;align=left;" vertex="1" parent="2">
                    <mxGeometry x="130" y="60" width="250" height="26" as="geometry"/>
                </mxCell>
                <mxCell id="6" value="&lt;div&gt;Les Tigresses &amp;nbsp; &lt;br&gt;&lt;/div&gt;" style="text;strokeColor=none;fillColor=none;html=1;fontSize=24;fontStyle=1;verticalAlign=middle;align=center;" vertex="1" parent="2">
                    <mxGeometry x="400" y="150" width="220" height="40" as="geometry"/>
                </mxCell>
                <mxCell id="12" value="" style="triangle;whiteSpace=wrap;html=1;fillColor=default;rotation=-45;strokeColor=none;" vertex="1" parent="2">
                    <mxGeometry x="530" y="190" width="60" height="80" as="geometry"/>
                </mxCell>
                <mxCell id="13" value="" style="triangle;whiteSpace=wrap;html=1;fillColor=default;rotation=45;strokeColor=none;" vertex="1" parent="2">
                    <mxGeometry x="530" y="290" width="60" height="80" as="geometry"/>
                </mxCell>
                <mxCell id="14" value="" style="triangle;whiteSpace=wrap;html=1;fillColor=default;rotation=135;strokeColor=none;" vertex="1" parent="2">
                    <mxGeometry x="430" y="290" width="60" height="80" as="geometry"/>
                </mxCell>
                <mxCell id="15" value="" style="triangle;whiteSpace=wrap;html=1;fillColor=default;rotation=-135;strokeColor=none;" vertex="1" parent="2">
                    <mxGeometry x="430" y="190" width="60" height="80" as="geometry"/>
                </mxCell>
                <mxCell id="16" value="Liste des patho" style="rounded=1;whiteSpace=wrap;html=1;" vertex="1" parent="2">
                    <mxGeometry x="264" y="390" width="471" height="50" as="geometry"/>
                </mxCell>
                <mxCell id="17" value="&lt;h1&gt;prÃ©sentation accuponcture&lt;/h1&gt;&lt;div&gt;&lt;br&gt;&lt;/div&gt;&lt;div&gt;qsfdgdlkfjglkfdsjgds&lt;/div&gt;&lt;div&gt;fgdskjglkdsjg&lt;/div&gt;&lt;div&gt;sdfgljdsgf&lt;/div&gt;" style="text;html=1;strokeColor=none;fillColor=none;spacing=5;spacingTop=-20;whiteSpace=wrap;overflow=hidden;rounded=0;align=center;" vertex="1" parent="2">
                    <mxGeometry x="293" y="210" width="377" height="120" as="geometry"/>
                </mxCell>
                <mxCell id="18" value="Se connecter" style="rounded=1;whiteSpace=wrap;html=1;" vertex="1" parent="2">
                    <mxGeometry x="264" y="475" width="471" height="50" as="geometry"/>
                </mxCell>
                <mxCell id="19" value="S'inscrire" style="rounded=1;whiteSpace=wrap;html=1;" vertex="1" parent="2">
                    <mxGeometry x="264" y="560" width="471" height="50" as="geometry"/>
                </mxCell>
            </root>
        </mxGraphModel>
    </diagram>
</mxfile>